<mxfile host="app.diagrams.net" modified="2021-12-03T22:01:01.842Z" agent="5.0 (Windows NT 10.0; Win64; x64) AppleWebKit/537.36 (KHTML, like Gecko) Chrome/96.0.4664.55 Safari/537.36 Edg/96.0.1054.41" etag="LKxNsKgxgva7qYB6gnfq" version="15.8.9" type="github">
  <diagram name="Page-1" id="8378b5f6-a2b2-b727-a746-972ab9d02e00">
    <mxGraphModel dx="1180" dy="965" grid="1" gridSize="10" guides="1" tooltips="1" connect="0" arrows="1" fold="1" page="1" pageScale="1.5" pageWidth="1169" pageHeight="827" background="none" math="0" shadow="0">
      <root>
        <mxCell id="0" />
        <mxCell id="1" parent="0" />
        <mxCell id="NSqQMpJfNQONV6tgr4sL-327" value="" style="strokeColor=#DEEDFF;fillColor=#D4E1FF" vertex="1" parent="1">
          <mxGeometry x="1646.5" y="380" width="20" height="160" as="geometry" />
        </mxCell>
        <mxCell id="NSqQMpJfNQONV6tgr4sL-328" value="" style="strokeColor=#DEEDFF;fillColor=#D4E1FF" vertex="1" parent="1">
          <mxGeometry x="1626.5" y="380" width="20" height="160" as="geometry" />
        </mxCell>
        <mxCell id="NSqQMpJfNQONV6tgr4sL-329" value="" style="strokeColor=#DEEDFF" vertex="1" parent="1">
          <mxGeometry x="1606.5" y="380" width="20" height="160" as="geometry" />
        </mxCell>
        <mxCell id="NSqQMpJfNQONV6tgr4sL-330" value="" style="strokeColor=#DEEDFF" vertex="1" parent="1">
          <mxGeometry x="1586.5" y="380" width="20" height="160" as="geometry" />
        </mxCell>
        <mxCell id="NSqQMpJfNQONV6tgr4sL-331" value="" style="strokeColor=#DEEDFF" vertex="1" parent="1">
          <mxGeometry x="1566.5" y="380" width="20" height="160" as="geometry" />
        </mxCell>
        <mxCell id="NSqQMpJfNQONV6tgr4sL-332" value="" style="strokeColor=#DEEDFF" vertex="1" parent="1">
          <mxGeometry x="1546.5" y="380" width="20" height="160" as="geometry" />
        </mxCell>
        <mxCell id="NSqQMpJfNQONV6tgr4sL-333" value="" style="strokeColor=#DEEDFF" vertex="1" parent="1">
          <mxGeometry x="1526.5" y="380" width="20" height="160" as="geometry" />
        </mxCell>
        <mxCell id="NSqQMpJfNQONV6tgr4sL-320" value="" style="strokeColor=#DEEDFF;fillColor=#D4E1FF" vertex="1" parent="1">
          <mxGeometry x="1506.5" y="380" width="20" height="160" as="geometry" />
        </mxCell>
        <mxCell id="NSqQMpJfNQONV6tgr4sL-321" value="" style="strokeColor=#DEEDFF;fillColor=#D4E1FF" vertex="1" parent="1">
          <mxGeometry x="1486.5" y="380" width="20" height="160" as="geometry" />
        </mxCell>
        <mxCell id="NSqQMpJfNQONV6tgr4sL-322" value="" style="strokeColor=#DEEDFF" vertex="1" parent="1">
          <mxGeometry x="1466.5" y="380" width="20" height="160" as="geometry" />
        </mxCell>
        <mxCell id="NSqQMpJfNQONV6tgr4sL-323" value="" style="strokeColor=#DEEDFF" vertex="1" parent="1">
          <mxGeometry x="1446.5" y="380" width="20" height="160" as="geometry" />
        </mxCell>
        <mxCell id="NSqQMpJfNQONV6tgr4sL-324" value="" style="strokeColor=#DEEDFF" vertex="1" parent="1">
          <mxGeometry x="1426.5" y="380" width="20" height="160" as="geometry" />
        </mxCell>
        <mxCell id="NSqQMpJfNQONV6tgr4sL-325" value="" style="strokeColor=#DEEDFF" vertex="1" parent="1">
          <mxGeometry x="1406.5" y="380" width="20" height="160" as="geometry" />
        </mxCell>
        <mxCell id="NSqQMpJfNQONV6tgr4sL-326" value="" style="strokeColor=#DEEDFF" vertex="1" parent="1">
          <mxGeometry x="1386.5" y="380" width="20" height="160" as="geometry" />
        </mxCell>
        <mxCell id="NSqQMpJfNQONV6tgr4sL-313" value="" style="strokeColor=#DEEDFF;fillColor=#D4E1FF" vertex="1" parent="1">
          <mxGeometry x="1366.5" y="380" width="20" height="160" as="geometry" />
        </mxCell>
        <mxCell id="NSqQMpJfNQONV6tgr4sL-314" value="" style="strokeColor=#DEEDFF;fillColor=#D4E1FF" vertex="1" parent="1">
          <mxGeometry x="1346.5" y="380" width="20" height="160" as="geometry" />
        </mxCell>
        <mxCell id="NSqQMpJfNQONV6tgr4sL-315" value="" style="strokeColor=#DEEDFF" vertex="1" parent="1">
          <mxGeometry x="1326.5" y="380" width="20" height="160" as="geometry" />
        </mxCell>
        <mxCell id="NSqQMpJfNQONV6tgr4sL-316" value="" style="strokeColor=#DEEDFF" vertex="1" parent="1">
          <mxGeometry x="1306.5" y="380" width="20" height="160" as="geometry" />
        </mxCell>
        <mxCell id="NSqQMpJfNQONV6tgr4sL-317" value="" style="strokeColor=#DEEDFF" vertex="1" parent="1">
          <mxGeometry x="1286.5" y="380" width="20" height="160" as="geometry" />
        </mxCell>
        <mxCell id="NSqQMpJfNQONV6tgr4sL-318" value="" style="strokeColor=#DEEDFF" vertex="1" parent="1">
          <mxGeometry x="1266.5" y="380" width="20" height="160" as="geometry" />
        </mxCell>
        <mxCell id="NSqQMpJfNQONV6tgr4sL-319" value="" style="strokeColor=#DEEDFF" vertex="1" parent="1">
          <mxGeometry x="1246.5" y="380" width="20" height="160" as="geometry" />
        </mxCell>
        <mxCell id="NSqQMpJfNQONV6tgr4sL-306" value="" style="strokeColor=#DEEDFF;fillColor=#D4E1FF" vertex="1" parent="1">
          <mxGeometry x="1226.5" y="380" width="20" height="160" as="geometry" />
        </mxCell>
        <mxCell id="NSqQMpJfNQONV6tgr4sL-307" value="" style="strokeColor=#DEEDFF;fillColor=#D4E1FF" vertex="1" parent="1">
          <mxGeometry x="1206.5" y="380" width="20" height="160" as="geometry" />
        </mxCell>
        <mxCell id="NSqQMpJfNQONV6tgr4sL-308" value="" style="strokeColor=#DEEDFF" vertex="1" parent="1">
          <mxGeometry x="1186.5" y="380" width="20" height="160" as="geometry" />
        </mxCell>
        <mxCell id="NSqQMpJfNQONV6tgr4sL-309" value="" style="strokeColor=#DEEDFF" vertex="1" parent="1">
          <mxGeometry x="1166.5" y="380" width="20" height="160" as="geometry" />
        </mxCell>
        <mxCell id="NSqQMpJfNQONV6tgr4sL-310" value="" style="strokeColor=#DEEDFF" vertex="1" parent="1">
          <mxGeometry x="1146.5" y="380" width="20" height="160" as="geometry" />
        </mxCell>
        <mxCell id="NSqQMpJfNQONV6tgr4sL-311" value="" style="strokeColor=#DEEDFF" vertex="1" parent="1">
          <mxGeometry x="1126.5" y="380" width="20" height="160" as="geometry" />
        </mxCell>
        <mxCell id="NSqQMpJfNQONV6tgr4sL-312" value="" style="strokeColor=#DEEDFF" vertex="1" parent="1">
          <mxGeometry x="1106.5" y="380" width="20" height="160" as="geometry" />
        </mxCell>
        <mxCell id="NSqQMpJfNQONV6tgr4sL-285" value="" style="strokeColor=#DEEDFF;fillColor=#D4E1FF" vertex="1" parent="1">
          <mxGeometry x="1086.5" y="380" width="20" height="160" as="geometry" />
        </mxCell>
        <mxCell id="NSqQMpJfNQONV6tgr4sL-286" value="" style="strokeColor=#DEEDFF;fillColor=#D4E1FF" vertex="1" parent="1">
          <mxGeometry x="1066.5" y="380" width="20" height="160" as="geometry" />
        </mxCell>
        <mxCell id="NSqQMpJfNQONV6tgr4sL-287" value="" style="strokeColor=#DEEDFF" vertex="1" parent="1">
          <mxGeometry x="1046.5" y="380" width="20" height="160" as="geometry" />
        </mxCell>
        <mxCell id="NSqQMpJfNQONV6tgr4sL-288" value="" style="strokeColor=#DEEDFF" vertex="1" parent="1">
          <mxGeometry x="1026.5" y="380" width="20" height="160" as="geometry" />
        </mxCell>
        <mxCell id="NSqQMpJfNQONV6tgr4sL-289" value="" style="strokeColor=#DEEDFF" vertex="1" parent="1">
          <mxGeometry x="1006.5" y="380" width="20" height="160" as="geometry" />
        </mxCell>
        <mxCell id="NSqQMpJfNQONV6tgr4sL-290" value="" style="strokeColor=#DEEDFF" vertex="1" parent="1">
          <mxGeometry x="986.5" y="380" width="20" height="160" as="geometry" />
        </mxCell>
        <mxCell id="NSqQMpJfNQONV6tgr4sL-291" value="" style="strokeColor=#DEEDFF" vertex="1" parent="1">
          <mxGeometry x="966.5" y="380" width="20" height="160" as="geometry" />
        </mxCell>
        <mxCell id="NSqQMpJfNQONV6tgr4sL-278" value="" style="strokeColor=#DEEDFF;fillColor=#D4E1FF" vertex="1" parent="1">
          <mxGeometry x="946.5" y="380" width="20" height="160" as="geometry" />
        </mxCell>
        <mxCell id="NSqQMpJfNQONV6tgr4sL-279" value="" style="strokeColor=#DEEDFF;fillColor=#D4E1FF" vertex="1" parent="1">
          <mxGeometry x="926.5" y="380" width="20" height="160" as="geometry" />
        </mxCell>
        <mxCell id="NSqQMpJfNQONV6tgr4sL-280" value="" style="strokeColor=#DEEDFF" vertex="1" parent="1">
          <mxGeometry x="906.5" y="380" width="20" height="160" as="geometry" />
        </mxCell>
        <mxCell id="NSqQMpJfNQONV6tgr4sL-281" value="" style="strokeColor=#DEEDFF" vertex="1" parent="1">
          <mxGeometry x="886.5" y="380" width="20" height="160" as="geometry" />
        </mxCell>
        <mxCell id="NSqQMpJfNQONV6tgr4sL-282" value="" style="strokeColor=#DEEDFF" vertex="1" parent="1">
          <mxGeometry x="866.5" y="380" width="20" height="160" as="geometry" />
        </mxCell>
        <mxCell id="NSqQMpJfNQONV6tgr4sL-283" value="" style="strokeColor=#DEEDFF" vertex="1" parent="1">
          <mxGeometry x="846.5" y="380" width="20" height="160" as="geometry" />
        </mxCell>
        <mxCell id="NSqQMpJfNQONV6tgr4sL-284" value="" style="strokeColor=#DEEDFF" vertex="1" parent="1">
          <mxGeometry x="826.5" y="380" width="20" height="160" as="geometry" />
        </mxCell>
        <mxCell id="64" value="Mobile App" style="align=left;strokeColor=#DEEDFF;fillColor=#ADC3D9" parent="1" vertex="1">
          <mxGeometry x="366.5" y="380" width="320" height="20" as="geometry" />
        </mxCell>
        <mxCell id="68" value="" style="strokeColor=#DEEDFF" parent="1" vertex="1">
          <mxGeometry x="686.5" y="380" width="20" height="160" as="geometry" />
        </mxCell>
        <mxCell id="75" value="api Consumption" style="align=left;strokeColor=#DEEDFF" parent="1" vertex="1">
          <mxGeometry x="366.5000000000003" y="439.9999999999998" width="319.9999999999997" height="20.000000000000014" as="geometry" />
        </mxCell>
        <mxCell id="80" value="Developpement" style="align=left;strokeColor=#DEEDFF" parent="1" vertex="1">
          <mxGeometry x="366.5" y="460.00000000000017" width="320" height="20" as="geometry" />
        </mxCell>
        <mxCell id="85" value="Test" style="align=left;strokeColor=#DEEDFF" parent="1" vertex="1">
          <mxGeometry x="366.4999999999999" y="480.00000000000017" width="320.0000000000001" height="20" as="geometry" />
        </mxCell>
        <mxCell id="90" value="Maintenance" style="align=left;strokeColor=#DEEDFF" parent="1" vertex="1">
          <mxGeometry x="366.4999999999999" y="500.00000000000045" width="320.0000000000001" height="20" as="geometry" />
        </mxCell>
        <mxCell id="95" value="Build and deploy" style="align=left;strokeColor=#DEEDFF" parent="1" vertex="1">
          <mxGeometry x="366.5000000000006" y="520.0000000000007" width="319.9999999999994" height="20" as="geometry" />
        </mxCell>
        <mxCell id="100" value="Bill of works" style="align=left;strokeColor=#DEEDFF" parent="1" vertex="1">
          <mxGeometry x="366.5000000000006" y="540.0000000000006" width="319.9999999999994" height="20" as="geometry" />
        </mxCell>
        <mxCell id="194" value="" style="strokeColor=#DEEDFF" parent="1" vertex="1">
          <mxGeometry x="706.5" y="380" width="20" height="160" as="geometry" />
        </mxCell>
        <mxCell id="195" value="" style="strokeColor=#DEEDFF" parent="1" vertex="1">
          <mxGeometry x="726.5" y="380" width="20" height="160" as="geometry" />
        </mxCell>
        <mxCell id="196" value="" style="strokeColor=#DEEDFF" parent="1" vertex="1">
          <mxGeometry x="746.5" y="380" width="20" height="160" as="geometry" />
        </mxCell>
        <mxCell id="197" value="" style="strokeColor=#DEEDFF" parent="1" vertex="1">
          <mxGeometry x="766.5" y="380" width="20" height="160" as="geometry" />
        </mxCell>
        <mxCell id="198" value="" style="strokeColor=#DEEDFF;fillColor=#D4E1FF" parent="1" vertex="1">
          <mxGeometry x="786.5" y="380" width="20" height="160" as="geometry" />
        </mxCell>
        <mxCell id="199" value="" style="strokeColor=#DEEDFF;fillColor=#D4E1FF" parent="1" vertex="1">
          <mxGeometry x="806.5" y="380" width="20" height="160" as="geometry" />
        </mxCell>
        <mxCell id="200" value="" style="strokeColor=#DEEDFF" parent="1" vertex="1">
          <mxGeometry x="826.5" y="380" width="20" height="160" as="geometry" />
        </mxCell>
        <mxCell id="201" value="" style="strokeColor=#DEEDFF" parent="1" vertex="1">
          <mxGeometry x="846.5" y="380" width="20" height="160" as="geometry" />
        </mxCell>
        <mxCell id="202" value="" style="strokeColor=#DEEDFF" parent="1" vertex="1">
          <mxGeometry x="866.5" y="380" width="20" height="160" as="geometry" />
        </mxCell>
        <mxCell id="203" value="" style="strokeColor=#DEEDFF" parent="1" vertex="1">
          <mxGeometry x="886.5" y="380" width="20" height="160" as="geometry" />
        </mxCell>
        <mxCell id="2" value="Task Name" style="fillColor=#23445D;strokeColor=#FFFFFF;strokeWidth=2;fontColor=#FFFFFF;fontStyle=1" parent="1" vertex="1">
          <mxGeometry x="366.5" y="340" width="320" height="40" as="geometry" />
        </mxCell>
        <mxCell id="4" value="16 Apr 12" style="fillColor=#23445D;strokeColor=#FFFFFF;strokeWidth=2;fontColor=#FFFFFF;fontStyle=1" parent="1" vertex="1">
          <mxGeometry x="686.5000000000018" y="340.0000000000001" width="140" height="20" as="geometry" />
        </mxCell>
        <mxCell id="5" value="M" style="fillColor=#23445D;strokeColor=#FFFFFF;strokeWidth=2;fontColor=#FFFFFF;fontStyle=1" parent="1" vertex="1">
          <mxGeometry x="686.5000000000018" y="360.0000000000001" width="20" height="20" as="geometry" />
        </mxCell>
        <mxCell id="6" value="T" style="fillColor=#23445D;strokeColor=#FFFFFF;strokeWidth=2;fontColor=#FFFFFF;fontStyle=1" parent="1" vertex="1">
          <mxGeometry x="706.5000000000018" y="360.0000000000001" width="20" height="20" as="geometry" />
        </mxCell>
        <mxCell id="7" value="W" style="fillColor=#23445D;strokeColor=#FFFFFF;strokeWidth=2;fontColor=#FFFFFF;fontStyle=1" parent="1" vertex="1">
          <mxGeometry x="726.5000000000018" y="360.0000000000001" width="20" height="20" as="geometry" />
        </mxCell>
        <mxCell id="8" value="T" style="fillColor=#23445D;strokeColor=#FFFFFF;strokeWidth=2;fontColor=#FFFFFF;fontStyle=1" parent="1" vertex="1">
          <mxGeometry x="746.5000000000018" y="360.0000000000001" width="20" height="20" as="geometry" />
        </mxCell>
        <mxCell id="9" value="F" style="fillColor=#23445D;strokeColor=#FFFFFF;strokeWidth=2;fontColor=#FFFFFF;fontStyle=1" parent="1" vertex="1">
          <mxGeometry x="766.5000000000016" y="360.0000000000001" width="20" height="20" as="geometry" />
        </mxCell>
        <mxCell id="10" value="S" style="fillColor=#23445D;strokeColor=#FFFFFF;strokeWidth=2;fontColor=#FFFFFF;fontStyle=1" parent="1" vertex="1">
          <mxGeometry x="786.5000000000016" y="360.0000000000001" width="20" height="20" as="geometry" />
        </mxCell>
        <mxCell id="11" value="S" style="fillColor=#23445D;strokeColor=#FFFFFF;strokeWidth=2;fontColor=#FFFFFF;fontStyle=1" parent="1" vertex="1">
          <mxGeometry x="806.5000000000016" y="360.0000000000001" width="20" height="20" as="geometry" />
        </mxCell>
        <mxCell id="15" value="23 Apr 12" style="fillColor=#23445D;strokeColor=#FFFFFF;strokeWidth=2;fontColor=#FFFFFF;fontStyle=1" parent="1" vertex="1">
          <mxGeometry x="826.5000000000018" y="340.0000000000001" width="140" height="20" as="geometry" />
        </mxCell>
        <mxCell id="16" value="M" style="fillColor=#23445D;strokeColor=#FFFFFF;strokeWidth=2;fontColor=#FFFFFF;fontStyle=1" parent="1" vertex="1">
          <mxGeometry x="826.5000000000018" y="360.0000000000001" width="20" height="20" as="geometry" />
        </mxCell>
        <mxCell id="17" value="T" style="fillColor=#23445D;strokeColor=#FFFFFF;strokeWidth=2;fontColor=#FFFFFF;fontStyle=1" parent="1" vertex="1">
          <mxGeometry x="846.5000000000018" y="360.0000000000001" width="20" height="20" as="geometry" />
        </mxCell>
        <mxCell id="18" value="W" style="fillColor=#23445D;strokeColor=#FFFFFF;strokeWidth=2;fontColor=#FFFFFF;fontStyle=1" parent="1" vertex="1">
          <mxGeometry x="866.5000000000018" y="360.0000000000001" width="20" height="20" as="geometry" />
        </mxCell>
        <mxCell id="19" value="T" style="fillColor=#23445D;strokeColor=#FFFFFF;strokeWidth=2;fontColor=#FFFFFF;fontStyle=1" parent="1" vertex="1">
          <mxGeometry x="886.5000000000018" y="360.0000000000001" width="20" height="20" as="geometry" />
        </mxCell>
        <mxCell id="20" value="F" style="fillColor=#23445D;strokeColor=#FFFFFF;strokeWidth=2;fontColor=#FFFFFF;fontStyle=1" parent="1" vertex="1">
          <mxGeometry x="906.5000000000016" y="360.0000000000001" width="20" height="20" as="geometry" />
        </mxCell>
        <mxCell id="21" value="S" style="fillColor=#23445D;strokeColor=#FFFFFF;strokeWidth=2;fontColor=#FFFFFF;fontStyle=1" parent="1" vertex="1">
          <mxGeometry x="926.5000000000016" y="360.0000000000001" width="20" height="20" as="geometry" />
        </mxCell>
        <mxCell id="22" value="S" style="fillColor=#23445D;strokeColor=#FFFFFF;strokeWidth=2;fontColor=#FFFFFF;fontStyle=1" parent="1" vertex="1">
          <mxGeometry x="946.5000000000016" y="360.0000000000001" width="20" height="20" as="geometry" />
        </mxCell>
        <mxCell id="23" value="30 Apr 12" style="fillColor=#23445D;strokeColor=#FFFFFF;strokeWidth=2;fontColor=#FFFFFF;fontStyle=1" parent="1" vertex="1">
          <mxGeometry x="966.5000000000018" y="340.00000000000006" width="140" height="20" as="geometry" />
        </mxCell>
        <mxCell id="24" value="M" style="fillColor=#23445D;strokeColor=#FFFFFF;strokeWidth=2;fontColor=#FFFFFF;fontStyle=1" parent="1" vertex="1">
          <mxGeometry x="966.5000000000018" y="360.00000000000006" width="20" height="20" as="geometry" />
        </mxCell>
        <mxCell id="25" value="T" style="fillColor=#23445D;strokeColor=#FFFFFF;strokeWidth=2;fontColor=#FFFFFF;fontStyle=1" parent="1" vertex="1">
          <mxGeometry x="986.5000000000018" y="360.00000000000006" width="20" height="20" as="geometry" />
        </mxCell>
        <mxCell id="26" value="W" style="fillColor=#23445D;strokeColor=#FFFFFF;strokeWidth=2;fontColor=#FFFFFF;fontStyle=1" parent="1" vertex="1">
          <mxGeometry x="1006.5000000000018" y="360.00000000000006" width="20" height="20" as="geometry" />
        </mxCell>
        <mxCell id="27" value="T" style="fillColor=#23445D;strokeColor=#FFFFFF;strokeWidth=2;fontColor=#FFFFFF;fontStyle=1" parent="1" vertex="1">
          <mxGeometry x="1026.5000000000018" y="360.00000000000006" width="20" height="20" as="geometry" />
        </mxCell>
        <mxCell id="28" value="F" style="fillColor=#23445D;strokeColor=#FFFFFF;strokeWidth=2;fontColor=#FFFFFF;fontStyle=1" parent="1" vertex="1">
          <mxGeometry x="1046.5000000000016" y="360.00000000000006" width="20" height="20" as="geometry" />
        </mxCell>
        <mxCell id="29" value="S" style="fillColor=#23445D;strokeColor=#FFFFFF;strokeWidth=2;fontColor=#FFFFFF;fontStyle=1" parent="1" vertex="1">
          <mxGeometry x="1066.5000000000016" y="360.00000000000006" width="20" height="20" as="geometry" />
        </mxCell>
        <mxCell id="30" value="S" style="fillColor=#23445D;strokeColor=#FFFFFF;strokeWidth=2;fontColor=#FFFFFF;fontStyle=1" parent="1" vertex="1">
          <mxGeometry x="1086.5000000000016" y="360.00000000000006" width="20" height="20" as="geometry" />
        </mxCell>
        <mxCell id="31" value="7 May 12" style="fillColor=#23445D;strokeColor=#FFFFFF;strokeWidth=2;fontColor=#FFFFFF;fontStyle=1" parent="1" vertex="1">
          <mxGeometry x="1106.5000000000018" y="340.00000000000006" width="140" height="20" as="geometry" />
        </mxCell>
        <mxCell id="32" value="M" style="fillColor=#23445D;strokeColor=#FFFFFF;strokeWidth=2;fontColor=#FFFFFF;fontStyle=1" parent="1" vertex="1">
          <mxGeometry x="1106.5000000000018" y="360.00000000000006" width="20" height="20" as="geometry" />
        </mxCell>
        <mxCell id="33" value="T" style="fillColor=#23445D;strokeColor=#FFFFFF;strokeWidth=2;fontColor=#FFFFFF;fontStyle=1" parent="1" vertex="1">
          <mxGeometry x="1126.5000000000018" y="360.00000000000006" width="20" height="20" as="geometry" />
        </mxCell>
        <mxCell id="34" value="W" style="fillColor=#23445D;strokeColor=#FFFFFF;strokeWidth=2;fontColor=#FFFFFF;fontStyle=1" parent="1" vertex="1">
          <mxGeometry x="1146.5000000000018" y="360.00000000000006" width="20" height="20" as="geometry" />
        </mxCell>
        <mxCell id="35" value="T" style="fillColor=#23445D;strokeColor=#FFFFFF;strokeWidth=2;fontColor=#FFFFFF;fontStyle=1" parent="1" vertex="1">
          <mxGeometry x="1166.5000000000018" y="360.00000000000006" width="20" height="20" as="geometry" />
        </mxCell>
        <mxCell id="36" value="F" style="fillColor=#23445D;strokeColor=#FFFFFF;strokeWidth=2;fontColor=#FFFFFF;fontStyle=1" parent="1" vertex="1">
          <mxGeometry x="1186.5000000000016" y="360" width="20" height="20" as="geometry" />
        </mxCell>
        <mxCell id="37" value="S" style="fillColor=#23445D;strokeColor=#FFFFFF;strokeWidth=2;fontColor=#FFFFFF;fontStyle=1" parent="1" vertex="1">
          <mxGeometry x="1206.5000000000016" y="360" width="20" height="20" as="geometry" />
        </mxCell>
        <mxCell id="38" value="S" style="fillColor=#23445D;strokeColor=#FFFFFF;strokeWidth=2;fontColor=#FFFFFF;fontStyle=1" parent="1" vertex="1">
          <mxGeometry x="1226.5000000000016" y="360" width="20" height="20" as="geometry" />
        </mxCell>
        <mxCell id="39" value="14 May 12" style="fillColor=#23445D;strokeColor=#FFFFFF;strokeWidth=2;fontColor=#FFFFFF;fontStyle=1" parent="1" vertex="1">
          <mxGeometry x="1246.5000000000018" y="340.00000000000006" width="140" height="20" as="geometry" />
        </mxCell>
        <mxCell id="40" value="M" style="fillColor=#23445D;strokeColor=#FFFFFF;strokeWidth=2;fontColor=#FFFFFF;fontStyle=1" parent="1" vertex="1">
          <mxGeometry x="1246.5000000000018" y="360.00000000000006" width="20" height="20" as="geometry" />
        </mxCell>
        <mxCell id="41" value="T" style="fillColor=#23445D;strokeColor=#FFFFFF;strokeWidth=2;fontColor=#FFFFFF;fontStyle=1" parent="1" vertex="1">
          <mxGeometry x="1266.5000000000018" y="360.00000000000006" width="20" height="20" as="geometry" />
        </mxCell>
        <mxCell id="42" value="W" style="fillColor=#23445D;strokeColor=#FFFFFF;strokeWidth=2;fontColor=#FFFFFF;fontStyle=1" parent="1" vertex="1">
          <mxGeometry x="1286.5000000000018" y="360.00000000000006" width="20" height="20" as="geometry" />
        </mxCell>
        <mxCell id="43" value="T" style="fillColor=#23445D;strokeColor=#FFFFFF;strokeWidth=2;fontColor=#FFFFFF;fontStyle=1" parent="1" vertex="1">
          <mxGeometry x="1306.5000000000018" y="360.00000000000006" width="20" height="20" as="geometry" />
        </mxCell>
        <mxCell id="44" value="F" style="fillColor=#23445D;strokeColor=#FFFFFF;strokeWidth=2;fontColor=#FFFFFF;fontStyle=1" parent="1" vertex="1">
          <mxGeometry x="1326.5000000000016" y="360" width="20" height="20" as="geometry" />
        </mxCell>
        <mxCell id="45" value="S" style="fillColor=#23445D;strokeColor=#FFFFFF;strokeWidth=2;fontColor=#FFFFFF;fontStyle=1" parent="1" vertex="1">
          <mxGeometry x="1346.5000000000016" y="360" width="20" height="20" as="geometry" />
        </mxCell>
        <mxCell id="46" value="S" style="fillColor=#23445D;strokeColor=#FFFFFF;strokeWidth=2;fontColor=#FFFFFF;fontStyle=1" parent="1" vertex="1">
          <mxGeometry x="1366.5000000000016" y="360" width="20" height="20" as="geometry" />
        </mxCell>
        <mxCell id="47" value="21 May 12" style="fillColor=#23445D;strokeColor=#FFFFFF;strokeWidth=2;fontColor=#FFFFFF;fontStyle=1" parent="1" vertex="1">
          <mxGeometry x="1386.5000000000018" y="340" width="140" height="20" as="geometry" />
        </mxCell>
        <mxCell id="48" value="M" style="fillColor=#23445D;strokeColor=#FFFFFF;strokeWidth=2;fontColor=#FFFFFF;fontStyle=1" parent="1" vertex="1">
          <mxGeometry x="1386.5000000000018" y="360" width="20" height="20" as="geometry" />
        </mxCell>
        <mxCell id="49" value="T" style="fillColor=#23445D;strokeColor=#FFFFFF;strokeWidth=2;fontColor=#FFFFFF;fontStyle=1" parent="1" vertex="1">
          <mxGeometry x="1406.5000000000018" y="360" width="20" height="20" as="geometry" />
        </mxCell>
        <mxCell id="50" value="W" style="fillColor=#23445D;strokeColor=#FFFFFF;strokeWidth=2;fontColor=#FFFFFF;fontStyle=1" parent="1" vertex="1">
          <mxGeometry x="1426.5000000000018" y="360" width="20" height="20" as="geometry" />
        </mxCell>
        <mxCell id="51" value="T" style="fillColor=#23445D;strokeColor=#FFFFFF;strokeWidth=2;fontColor=#FFFFFF;fontStyle=1" parent="1" vertex="1">
          <mxGeometry x="1446.5000000000018" y="360" width="20" height="20" as="geometry" />
        </mxCell>
        <mxCell id="52" value="F" style="fillColor=#23445D;strokeColor=#FFFFFF;strokeWidth=2;fontColor=#FFFFFF;fontStyle=1" parent="1" vertex="1">
          <mxGeometry x="1466.5000000000016" y="360" width="20" height="20" as="geometry" />
        </mxCell>
        <mxCell id="53" value="S" style="fillColor=#23445D;strokeColor=#FFFFFF;strokeWidth=2;fontColor=#FFFFFF;fontStyle=1" parent="1" vertex="1">
          <mxGeometry x="1486.5000000000016" y="360" width="20" height="20" as="geometry" />
        </mxCell>
        <mxCell id="54" value="S" style="fillColor=#23445D;strokeColor=#FFFFFF;strokeWidth=2;fontColor=#FFFFFF;fontStyle=1" parent="1" vertex="1">
          <mxGeometry x="1506.5000000000016" y="360" width="20" height="20" as="geometry" />
        </mxCell>
        <mxCell id="55" value="28 May 12" style="fillColor=#23445D;strokeColor=#FFFFFF;strokeWidth=2;fontColor=#FFFFFF;fontStyle=1" parent="1" vertex="1">
          <mxGeometry x="1526.5000000000018" y="340.0000000000001" width="140" height="20" as="geometry" />
        </mxCell>
        <mxCell id="56" value="M" style="fillColor=#23445D;strokeColor=#FFFFFF;strokeWidth=2;fontColor=#FFFFFF;fontStyle=1" parent="1" vertex="1">
          <mxGeometry x="1526.5000000000018" y="360.0000000000001" width="20" height="20" as="geometry" />
        </mxCell>
        <mxCell id="57" value="T" style="fillColor=#23445D;strokeColor=#FFFFFF;strokeWidth=2;fontColor=#FFFFFF;fontStyle=1" parent="1" vertex="1">
          <mxGeometry x="1546.5000000000018" y="360.0000000000001" width="20" height="20" as="geometry" />
        </mxCell>
        <mxCell id="58" value="W" style="fillColor=#23445D;strokeColor=#FFFFFF;strokeWidth=2;fontColor=#FFFFFF;fontStyle=1" parent="1" vertex="1">
          <mxGeometry x="1566.5000000000018" y="360.0000000000001" width="20" height="20" as="geometry" />
        </mxCell>
        <mxCell id="59" value="T" style="fillColor=#23445D;strokeColor=#FFFFFF;strokeWidth=2;fontColor=#FFFFFF;fontStyle=1" parent="1" vertex="1">
          <mxGeometry x="1586.5000000000018" y="360.0000000000001" width="20" height="20" as="geometry" />
        </mxCell>
        <mxCell id="60" value="F" style="fillColor=#23445D;strokeColor=#FFFFFF;strokeWidth=2;fontColor=#FFFFFF;fontStyle=1" parent="1" vertex="1">
          <mxGeometry x="1606.5000000000016" y="360.0000000000001" width="20" height="20" as="geometry" />
        </mxCell>
        <mxCell id="61" value="S" style="fillColor=#23445D;strokeColor=#FFFFFF;strokeWidth=2;fontColor=#FFFFFF;fontStyle=1" parent="1" vertex="1">
          <mxGeometry x="1626.5000000000016" y="360.0000000000001" width="20" height="20" as="geometry" />
        </mxCell>
        <mxCell id="62" value="S" style="fillColor=#23445D;strokeColor=#FFFFFF;strokeWidth=2;fontColor=#FFFFFF;fontStyle=1" parent="1" vertex="1">
          <mxGeometry x="1646.5000000000016" y="360.0000000000001" width="20" height="20" as="geometry" />
        </mxCell>
        <mxCell id="242" value="" style="shape=mxgraph.flowchart.process;fillColor=#AE4132;strokeColor=#000000;strokeWidth=2;opacity=50" parent="1" vertex="1">
          <mxGeometry x="686.5000000000015" y="400.0000000000004" width="940.0000000000006" height="19.99999999999983" as="geometry" />
        </mxCell>
        <mxCell id="243" value="" style="shape=mxgraph.arrows.bent_right_arrow;fillColor=#AE4132;strokeColor=none;strokeWidth=2;direction=south" parent="1" vertex="1">
          <mxGeometry x="706.500000000002" y="429.99999999999966" width="10.000000000000341" height="9.99999999999983" as="geometry" />
        </mxCell>
        <mxCell id="244" value="" style="shape=mxgraph.flowchart.process;fillColor=#AE4132;strokeColor=none;strokeWidth=2;opacity=50" parent="1" vertex="1">
          <mxGeometry x="686.5000000000032" y="419.9999999999997" width="19.999999999998863" height="19.99999999999983" as="geometry" />
        </mxCell>
        <mxCell id="245" value="" style="shape=mxgraph.flowchart.process;fillColor=#AE4132;strokeColor=none;strokeWidth=2;opacity=50" parent="1" vertex="1">
          <mxGeometry x="706.5000000000018" y="440.00000000000057" width="40.00000000000023" height="19.99999999999983" as="geometry" />
        </mxCell>
        <mxCell id="246" value="" style="shape=mxgraph.flowchart.process;fillColor=#AE4132;strokeColor=none;strokeWidth=2;opacity=50" parent="1" vertex="1">
          <mxGeometry x="746.5000000000018" y="460.00000000000085" width="19.999999999998863" height="19.99999999999983" as="geometry" />
        </mxCell>
        <mxCell id="247" value="" style="shape=mxgraph.flowchart.process;fillColor=#AE4132;strokeColor=none;strokeWidth=2;opacity=50" parent="1" vertex="1">
          <mxGeometry x="866.5000000000016" y="500.0000000000016" width="739.9999999999995" height="19.99999999999983" as="geometry" />
        </mxCell>
        <mxCell id="248" value="" style="shape=mxgraph.flowchart.process;fillColor=#AE4132;strokeColor=none;strokeWidth=2;opacity=50" parent="1" vertex="1">
          <mxGeometry x="1606.5000000000032" y="520.0000000000014" width="19.999999999998863" height="19.99999999999983" as="geometry" />
        </mxCell>
        <mxCell id="249" value="" style="shape=mxgraph.arrows.bent_right_arrow;fillColor=#AE4132;strokeColor=none;strokeWidth=2;direction=south" parent="1" vertex="1">
          <mxGeometry x="746.500000000001" y="449.99999999999943" width="10.000000000000341" height="9.99999999999983" as="geometry" />
        </mxCell>
        <mxCell id="250" value="" style="shape=mxgraph.arrows.bent_right_arrow;fillColor=#AE4132;strokeColor=none;strokeWidth=2;direction=south" parent="1" vertex="1">
          <mxGeometry x="766.5000000000007" y="470.0000000000001" width="10.000000000000341" height="9.99999999999983" as="geometry" />
        </mxCell>
        <mxCell id="251" value="" style="shape=mxgraph.arrows.bent_right_arrow;fillColor=#AE4132;strokeColor=none;strokeWidth=2;direction=south" parent="1" vertex="1">
          <mxGeometry x="1606.500000000002" y="510.0000000000016" width="10.000000000000341" height="9.99999999999983" as="geometry" />
        </mxCell>
        <mxCell id="252" value="" style="shape=mxgraph.flowchart.process;fillColor=#AE4132;strokeColor=none;strokeWidth=2;opacity=50" parent="1" vertex="1">
          <mxGeometry x="766.5000000000019" y="479.9999999999999" width="100.00000000000011" height="19.99999999999983" as="geometry" />
        </mxCell>
        <mxCell id="253" value="" style="shape=mxgraph.arrows.bent_right_arrow;fillColor=#AE4132;strokeColor=none;strokeWidth=2;direction=south" parent="1" vertex="1">
          <mxGeometry x="866.500000000002" y="489.99999999999983" width="10.000000000000341" height="9.99999999999983" as="geometry" />
        </mxCell>
        <mxCell id="254" value="" style="shape=mxgraph.flowchart.process;fillColor=#AE4132;strokeColor=#000000;strokeWidth=2;opacity=100" parent="1" vertex="1">
          <mxGeometry x="686.500000000001" y="380" width="940.0000000000006" height="19.99999999999983" as="geometry" />
        </mxCell>
        <mxCell id="NSqQMpJfNQONV6tgr4sL-335" value="App Design" style="align=left;strokeColor=#DEEDFF" vertex="1" parent="1">
          <mxGeometry x="366.5000000000003" y="399.9999999999998" width="319.9999999999997" height="20.000000000000014" as="geometry" />
        </mxCell>
        <mxCell id="NSqQMpJfNQONV6tgr4sL-336" value="App architecture" style="align=left;strokeColor=#DEEDFF" vertex="1" parent="1">
          <mxGeometry x="366.5" y="420.00000000000017" width="320" height="20" as="geometry" />
        </mxCell>
      </root>
    </mxGraphModel>
  </diagram>
</mxfile>
